<?xml version="1.0" encoding="UTF-8"?>
<svg id="Layer_2" data-name="Layer 2" xmlns="http://www.w3.org/2000/svg" viewBox="0 0 67.13 102.66">
  <defs>
    <style>
      .cls-1 {
        fill: #ea4435;
      }

      .cls-2 {
        fill: #547dbf;
      }

      .cls-3 {
        fill: #33a852;
      }

      .cls-4 {
        fill: #f9bc15;
      }
    </style>
  </defs>
  <g id="Layer_1-2" data-name="Layer 1">
    <path class="cls-2" d="M33.59,66.73c7.97,0,14.4-6.72,14.4-15.24V15.45c0-8.52-6.43-15.45-14.4-15.45s-14.4,6.88-14.4,15.45V51.48c0,8.52,6.43,15.24,14.4,15.24Z"/>
    <path class="cls-3" d="M28.79,82.54h9.6v20.12h-9.6v-20.12Z"/>
    <path class="cls-4" d="M9.84,76.33C3.74,69.5,0,61.8,0,51.33H9.6c0,7.44,2.69,12.42,7.05,17.35v1.64l-5.52,6.06-1.3-.05Z"/>
    <path class="cls-1" d="M33.59,76.63c-6.38,.02-12.49-2.84-16.99-7.96l-6.77,7.65c6.05,6.88,14.49,10.93,23.75,10.93,18.57,0,33.54-14.99,33.54-35.93h-9.55c0,14.99-10.75,25.31-23.99,25.31Z"/>
  </g>
</svg>