<svg width="220" height="220" viewBox="0 0 220 220" fill="none" xmlns="http://www.w3.org/2000/svg">
<path d="M112.909 8.72727L111.705 9.06818C111.629 8.86742 111.517 8.67235 111.369 8.48295C111.225 8.28977 111.028 8.13068 110.778 8.00568C110.528 7.88068 110.208 7.81818 109.818 7.81818C109.284 7.81818 108.839 7.94129 108.483 8.1875C108.131 8.42992 107.955 8.73864 107.955 9.11364C107.955 9.44697 108.076 9.71023 108.318 9.90341C108.561 10.0966 108.939 10.2576 109.455 10.3864L110.75 10.7045C111.53 10.8939 112.112 11.1837 112.494 11.5739C112.877 11.9602 113.068 12.4583 113.068 13.0682C113.068 13.5682 112.924 14.0152 112.636 14.4091C112.352 14.803 111.955 15.1136 111.443 15.3409C110.932 15.5682 110.337 15.6818 109.659 15.6818C108.769 15.6818 108.032 15.4886 107.449 15.1023C106.865 14.7159 106.496 14.1515 106.341 13.4091L107.614 13.0909C107.735 13.5606 107.964 13.9129 108.301 14.1477C108.642 14.3826 109.087 14.5 109.636 14.5C110.261 14.5 110.758 14.3674 111.125 14.1023C111.496 13.8333 111.682 13.5114 111.682 13.1364C111.682 12.8333 111.576 12.5795 111.364 12.375C111.151 12.1667 110.826 12.0114 110.386 11.9091L108.932 11.5682C108.133 11.3788 107.545 11.0852 107.17 10.6875C106.799 10.286 106.614 9.78409 106.614 9.18182C106.614 8.68939 106.752 8.25379 107.028 7.875C107.309 7.49621 107.689 7.19886 108.17 6.98295C108.655 6.76705 109.205 6.65909 109.818 6.65909C110.682 6.65909 111.36 6.84848 111.852 7.22727C112.348 7.60606 112.701 8.10606 112.909 8.72727Z" fill="black"/>
<path d="M124.003 16.7267C123.193 16.6075 122.524 16.3138 121.996 15.8455C121.468 15.3773 121.095 14.7846 120.879 14.0674C120.663 13.3503 120.619 12.5608 120.745 11.6988C120.874 10.8219 121.15 10.0718 121.571 9.44839C121.996 8.82183 122.527 8.36203 123.163 8.06902C123.804 7.77281 124.514 7.68206 125.294 7.79678C125.901 7.88613 126.432 8.07907 126.886 8.37562C127.34 8.67217 127.692 9.0457 127.944 9.49621C128.195 9.94671 128.319 10.4473 128.314 10.998L126.988 10.8027C126.945 10.3944 126.771 10.0127 126.467 9.65791C126.168 9.29987 125.726 9.07784 125.141 8.9918C124.624 8.91569 124.15 8.98387 123.721 9.19633C123.296 9.4056 122.939 9.73782 122.65 10.193C122.365 10.645 122.175 11.197 122.079 11.8491C121.98 12.5162 122 13.1125 122.137 13.638C122.278 14.1641 122.521 14.5924 122.867 14.9227C123.216 15.2537 123.653 15.4577 124.178 15.535C124.523 15.5857 124.845 15.5718 125.143 15.4932C125.442 15.4147 125.705 15.2773 125.933 15.0811C126.161 14.885 126.34 14.6356 126.468 14.3329L127.795 14.5281C127.645 15.0268 127.392 15.4585 127.036 15.8234C126.684 16.1852 126.249 16.4504 125.73 16.6191C125.215 16.7846 124.64 16.8204 124.003 16.7267Z" fill="black"/>
<path d="M135.528 18.996L138.042 10.6388L139.283 11.012L138.903 12.2743L138.99 12.3005C139.267 11.9328 139.643 11.6802 140.12 11.5427C140.596 11.4052 141.085 11.4118 141.585 11.5624C141.68 11.5907 141.797 11.628 141.937 11.6742C142.078 11.7204 142.183 11.758 142.253 11.7871L141.861 13.0929C141.82 13.0689 141.725 13.0226 141.576 12.9539C141.431 12.8827 141.274 12.8214 141.103 12.7701C140.697 12.6479 140.309 12.624 139.938 12.6985C139.572 12.7704 139.252 12.9272 138.978 13.169C138.708 13.4083 138.516 13.7165 138.403 14.0937L136.812 19.3823L135.528 18.996Z" fill="black"/>
<path d="M149.828 24.5033C149.115 24.1689 148.568 23.7057 148.189 23.1137C147.813 22.5234 147.618 21.8522 147.602 21.1002C147.59 20.3499 147.775 19.5665 148.158 18.7503C148.543 17.9271 149.03 17.2785 149.616 16.8045C150.205 16.3321 150.847 16.0515 151.541 15.9627C152.239 15.8756 152.945 15.9993 153.658 16.3337C154.371 16.6681 154.916 17.1305 155.292 17.7209C155.671 18.3128 155.866 18.9857 155.877 19.7395C155.891 20.4949 155.705 21.2842 155.319 22.1073C154.936 22.9236 154.451 23.5662 153.863 24.0352C153.278 24.5059 152.637 24.7847 151.94 24.8718C151.245 24.9606 150.542 24.8377 149.828 24.5033ZM150.339 23.4127C150.881 23.6667 151.392 23.7368 151.872 23.623C152.352 23.5092 152.783 23.2653 153.163 22.8913C153.543 22.5174 153.857 22.0663 154.105 21.5382C154.352 21.01 154.499 20.4784 154.545 19.9435C154.591 19.4086 154.505 18.9185 154.287 18.4732C154.069 18.028 153.689 17.6784 153.147 17.4243C152.605 17.1703 152.093 17.1019 151.611 17.2192C151.13 17.3364 150.698 17.5837 150.316 17.9611C149.934 18.3385 149.619 18.7912 149.372 19.3194C149.124 19.8476 148.978 20.3774 148.934 20.9089C148.89 21.4404 148.978 21.9271 149.197 22.3689C149.417 22.8107 149.798 23.1586 150.339 23.4127Z" fill="black"/>
<path d="M169.036 21.796L162.616 31.5007L161.498 30.7608L167.918 21.0561L169.036 21.796Z" fill="black"/>
<path d="M181.25 31.3317L173.485 39.9982L172.486 39.1034L180.251 30.4369L181.25 31.3317Z" fill="black"/>
<path d="M182.192 49.3003C181.727 48.7413 181.457 48.1303 181.384 47.4673C181.313 46.8018 181.436 46.1326 181.753 45.4597C182.073 44.7843 182.588 44.151 183.299 43.5598C184.003 42.9734 184.715 42.5854 185.435 42.3958C186.154 42.2061 186.834 42.2093 187.475 42.4051C188.116 42.601 188.672 42.9814 189.142 43.5462C189.505 43.9829 189.72 44.3885 189.785 44.763C189.855 45.1379 189.855 45.4687 189.783 45.7553C189.716 46.0423 189.656 46.2722 189.603 46.4448L189.675 46.5321L192.977 43.7845L193.835 44.8151L184.891 52.2586L184.062 51.2629L185.093 50.4051L184.991 50.2828C184.805 50.3089 184.562 50.3296 184.259 50.3449C183.959 50.3578 183.629 50.2953 183.267 50.1573C182.909 50.0169 182.551 49.7312 182.192 49.3003ZM183.234 48.6696C183.578 49.083 183.977 49.3427 184.43 49.4488C184.886 49.5524 185.367 49.5185 185.875 49.3472C186.386 49.1734 186.895 48.8757 187.401 48.4541C187.902 48.0373 188.28 47.5999 188.534 47.1417C188.792 46.6812 188.906 46.221 188.879 45.7612C188.854 45.299 188.667 44.8583 188.318 44.439C187.954 44.0023 187.539 43.7316 187.073 43.627C186.612 43.5229 186.13 43.5568 185.627 43.7286C185.13 43.901 184.646 44.1834 184.174 44.5759C183.696 44.9733 183.323 45.4071 183.054 45.8774C182.791 46.3481 182.664 46.8233 182.674 47.303C182.689 47.7831 182.876 48.2387 183.234 48.6696Z" fill="black"/>
<path d="M190.391 60.6719C189.98 59.9993 189.78 59.3116 189.791 58.6086C189.803 57.9089 190.01 57.2411 190.412 56.6053C190.816 55.9728 191.402 55.4217 192.172 54.9521C192.948 54.4785 193.711 54.2057 194.462 54.1338C195.214 54.0651 195.904 54.1853 196.532 54.4944C197.162 54.8066 197.682 55.299 198.093 55.9716C198.503 56.6441 198.702 57.3302 198.69 58.03C198.68 58.733 198.471 59.4017 198.064 60.0362C197.659 60.674 197.068 61.2296 196.292 61.7032C195.523 62.1729 194.763 62.441 194.014 62.5077C193.267 62.5777 192.578 62.4565 191.948 62.1442C191.321 61.8352 190.801 61.3444 190.391 60.6719ZM191.419 60.0444C191.731 60.5552 192.118 60.8957 192.581 61.0656C193.045 61.2356 193.538 61.2695 194.061 61.1675C194.585 61.0655 195.096 60.8625 195.594 60.5586C196.092 60.2547 196.507 59.8924 196.841 59.4715C197.174 59.0506 197.372 58.5944 197.436 58.1028C197.5 57.6112 197.376 57.1099 197.064 56.5991C196.753 56.0882 196.364 55.7488 195.897 55.5808C195.431 55.4128 194.934 55.3808 194.407 55.4848C193.881 55.5888 193.368 55.7928 192.871 56.0967C192.373 56.4005 191.959 56.7619 191.628 57.1808C191.298 57.5997 191.103 58.054 191.042 58.5436C190.982 59.0333 191.107 59.5335 191.419 60.0444Z" fill="black"/>
<path d="M195.684 70.0076L202.676 64.1471L203.227 65.4439L197.815 69.7933L197.851 69.877L204.729 68.9789L205.289 70.2967L199.881 74.5953L199.916 74.679L206.783 73.8107L207.334 75.1076L198.262 76.0736L197.746 74.8604L203.17 70.4812L203.117 70.3557L196.199 71.2208L195.684 70.0076Z" fill="black"/>
<path d="M205.891 82.4171L200.812 83.745L200.473 82.4477L208.916 80.2403L209.244 81.4936L207.925 81.8386L207.954 81.9485C208.434 82.0343 208.857 82.2447 209.223 82.5798C209.592 82.914 209.86 83.3999 210.027 84.0375C210.176 84.6092 210.19 85.1401 210.067 85.6302C209.948 86.1193 209.684 86.5448 209.273 86.9066C208.866 87.2674 208.304 87.5418 207.586 87.7295L202.22 89.1322L201.881 87.8349L207.158 86.4552C207.822 86.2818 208.294 85.9745 208.574 85.5332C208.857 85.091 208.921 84.5694 208.764 83.9684C208.655 83.5543 208.469 83.2076 208.204 82.9284C207.94 82.6529 207.611 82.4667 207.218 82.3698C206.825 82.273 206.382 82.2888 205.891 82.4171Z" fill="black"/>
<path d="M211.099 116.606L210.802 115.39C211.006 115.321 211.205 115.217 211.399 115.076C211.598 114.939 211.764 114.748 211.898 114.503C212.032 114.258 212.106 113.94 212.12 113.55C212.14 113.016 212.033 112.567 211.8 112.202C211.571 111.841 211.268 111.654 210.894 111.64C210.561 111.628 210.293 111.74 210.091 111.975C209.889 112.21 209.715 112.583 209.567 113.093L209.202 114.376C208.984 115.149 208.673 115.719 208.269 116.087C207.869 116.456 207.365 116.629 206.755 116.606C206.255 116.588 205.814 116.428 205.431 116.126C205.048 115.827 204.752 115.419 204.543 114.899C204.335 114.38 204.243 113.782 204.268 113.104C204.3 112.214 204.52 111.485 204.928 110.916C205.335 110.348 205.912 109.999 206.66 109.871L206.932 111.155C206.458 111.258 206.097 111.475 205.85 111.803C205.603 112.135 205.47 112.576 205.45 113.124C205.427 113.749 205.541 114.25 205.793 114.627C206.048 115.007 206.363 115.205 206.738 115.218C207.04 115.229 207.298 115.133 207.51 114.928C207.726 114.724 207.893 114.404 208.011 113.969L208.405 112.527C208.624 111.736 208.938 111.16 209.35 110.799C209.764 110.443 210.273 110.276 210.875 110.298C211.367 110.316 211.797 110.47 212.165 110.76C212.534 111.054 212.817 111.445 213.015 111.934C213.213 112.426 213.301 112.979 213.279 113.592C213.247 114.456 213.033 115.126 212.636 115.604C212.24 116.087 211.727 116.42 211.099 116.606Z" fill="black"/>
<path d="M202.7 127.4C202.848 126.595 203.166 125.938 203.654 125.427C204.141 124.916 204.747 124.565 205.471 124.376C206.196 124.186 206.986 124.17 207.843 124.328C208.715 124.489 209.454 124.792 210.062 125.235C210.673 125.683 211.113 126.23 211.382 126.877C211.655 127.529 211.72 128.242 211.576 129.016C211.465 129.62 211.253 130.143 210.94 130.586C210.627 131.029 210.241 131.368 209.781 131.603C209.322 131.838 208.817 131.943 208.267 131.918L208.511 130.599C208.92 130.571 209.308 130.412 209.674 130.121C210.042 129.835 210.28 129.401 210.388 128.82C210.483 128.306 210.432 127.83 210.235 127.394C210.042 126.961 209.723 126.592 209.278 126.287C208.837 125.985 208.292 125.775 207.644 125.655C206.981 125.533 206.385 125.531 205.854 125.648C205.324 125.77 204.887 125.997 204.544 126.331C204.2 126.668 203.981 127.097 203.884 127.619C203.821 127.961 203.823 128.283 203.891 128.585C203.958 128.886 204.086 129.154 204.274 129.389C204.461 129.624 204.704 129.812 205.002 129.951L204.758 131.27C204.265 131.102 203.843 130.833 203.492 130.464C203.143 130.099 202.894 129.654 202.744 129.13C202.598 128.61 202.583 128.033 202.7 127.4Z" fill="black"/>
<path d="M200.011 138.834L208.271 141.652L207.852 142.878L206.605 142.453L206.575 142.539C206.933 142.829 207.171 143.214 207.291 143.696C207.411 144.177 207.387 144.665 207.218 145.159C207.187 145.253 207.145 145.369 207.094 145.507C207.042 145.646 207.001 145.75 206.969 145.819L205.679 145.379C205.704 145.339 205.754 145.246 205.828 145.099C205.904 144.957 205.971 144.802 206.029 144.634C206.166 144.232 206.204 143.845 206.143 143.472C206.085 143.104 205.94 142.778 205.708 142.495C205.479 142.217 205.178 142.014 204.805 141.887L199.578 140.103L200.011 138.834Z" fill="black"/>
<path d="M193.985 152.924C194.345 152.223 194.828 151.694 195.434 151.337C196.037 150.983 196.715 150.812 197.467 150.824C198.217 150.839 198.994 151.053 199.795 151.465C200.604 151.88 201.234 152.39 201.686 152.993C202.137 153.599 202.394 154.251 202.457 154.948C202.519 155.649 202.37 156.349 202.009 157.05C201.649 157.75 201.167 158.278 200.563 158.632C199.958 158.989 199.278 159.16 198.525 159.143C197.769 159.129 196.987 158.914 196.179 158.499C195.377 158.086 194.753 157.578 194.305 156.973C193.856 156.372 193.601 155.721 193.54 155.021C193.476 154.324 193.625 153.625 193.985 152.924ZM195.056 153.475C194.783 154.007 194.694 154.515 194.79 154.999C194.886 155.483 195.114 155.922 195.474 156.316C195.834 156.709 196.273 157.039 196.792 157.306C197.311 157.573 197.837 157.739 198.37 157.804C198.902 157.869 199.395 157.801 199.848 157.6C200.301 157.398 200.664 157.031 200.938 156.499C201.212 155.967 201.299 155.458 201.199 154.972C201.1 154.486 200.868 154.046 200.505 153.651C200.142 153.255 199.701 152.924 199.182 152.657C198.663 152.391 198.139 152.225 197.61 152.162C197.08 152.098 196.591 152.168 196.141 152.372C195.692 152.575 195.33 152.943 195.056 153.475Z" fill="black"/>
<path d="M195.989 172.219L186.525 165.448L187.305 164.357L196.769 171.128L195.989 172.219Z" fill="black"/>
<path d="M186.014 184.076L177.636 175.999L178.567 175.034L186.944 183.11L186.014 184.076Z" fill="black"/>
<path d="M168.023 184.361C168.598 183.916 169.219 183.669 169.884 183.62C170.552 183.573 171.216 183.721 171.877 184.062C172.54 184.407 173.154 184.945 173.719 185.676C174.279 186.402 174.641 187.128 174.804 187.853C174.967 188.579 174.939 189.259 174.72 189.892C174.501 190.526 174.101 191.067 173.519 191.516C173.069 191.863 172.656 192.063 172.28 192.114C171.902 192.171 171.572 192.158 171.288 192.076C171.004 191.999 170.776 191.931 170.606 191.871L170.516 191.94L173.141 195.34L172.08 196.16L164.968 186.949L165.993 186.158L166.813 187.219L166.938 187.122C166.919 186.936 166.907 186.691 166.903 186.388C166.901 186.088 166.976 185.76 167.127 185.404C167.28 185.051 167.579 184.703 168.023 184.361ZM168.615 185.425C168.189 185.754 167.915 186.143 167.792 186.592C167.672 187.043 167.689 187.526 167.841 188.04C167.996 188.557 168.275 189.076 168.678 189.598C169.076 190.113 169.5 190.507 169.948 190.778C170.399 191.052 170.855 191.183 171.315 191.172C171.778 191.164 172.225 190.993 172.657 190.66C173.107 190.313 173.392 189.908 173.514 189.446C173.635 188.989 173.618 188.506 173.465 187.997C173.311 187.494 173.046 187 172.671 186.514C172.292 186.022 171.872 185.633 171.412 185.347C170.951 185.067 170.481 184.923 170.001 184.915C169.521 184.913 169.059 185.083 168.615 185.425Z" fill="black"/>
<path d="M156.359 192.139C157.046 191.753 157.741 191.578 158.443 191.614C159.142 191.652 159.802 191.884 160.422 192.308C161.04 192.735 161.569 193.342 162.01 194.128C162.455 194.92 162.7 195.693 162.744 196.446C162.785 197.2 162.64 197.885 162.308 198.502C161.973 199.12 161.462 199.622 160.775 200.007C160.088 200.393 159.395 200.567 158.696 200.529C157.994 200.493 157.333 200.26 156.714 199.83C156.092 199.402 155.558 198.791 155.113 197.999C154.672 197.212 154.431 196.444 154.392 195.693C154.35 194.943 154.496 194.26 154.831 193.642C155.163 193.025 155.672 192.524 156.359 192.139ZM156.949 193.189C156.427 193.482 156.072 193.857 155.886 194.314C155.699 194.77 155.647 195.262 155.73 195.789C155.813 196.316 155.997 196.834 156.282 197.342C156.568 197.851 156.915 198.28 157.323 198.628C157.732 198.977 158.18 199.192 158.669 199.273C159.158 199.355 159.664 199.25 160.185 198.957C160.707 198.664 161.061 198.287 161.246 197.827C161.431 197.367 161.481 196.872 161.396 196.342C161.311 195.812 161.126 195.293 160.841 194.784C160.555 194.275 160.209 193.848 159.803 193.503C159.396 193.158 158.949 192.946 158.462 192.868C157.975 192.789 157.471 192.896 156.949 193.189Z" fill="black"/>
<path d="M146.836 197.087L152.438 204.289L151.121 204.792L146.973 199.225L146.888 199.258L147.534 206.164L146.197 206.676L142.098 201.114L142.013 201.146L142.63 208.04L141.314 208.543L140.68 199.442L141.911 198.971L146.09 204.551L146.217 204.502L145.605 197.558L146.836 197.087Z" fill="black"/>
<path d="M134.062 206.835L132.921 201.71L134.23 201.419L136.127 209.937L134.863 210.219L134.566 208.888L134.455 208.913C134.352 209.39 134.126 209.805 133.778 210.158C133.431 210.515 132.935 210.765 132.292 210.908C131.715 211.037 131.184 211.031 130.699 210.89C130.214 210.754 129.799 210.474 129.452 210.05C129.107 209.631 128.853 209.059 128.692 208.334L127.486 202.921L128.795 202.63L129.981 207.954C130.13 208.623 130.42 209.105 130.85 209.401C131.282 209.701 131.801 209.783 132.407 209.648C132.825 209.555 133.178 209.382 133.467 209.127C133.752 208.873 133.95 208.552 134.061 208.162C134.172 207.773 134.173 207.33 134.062 206.835Z" fill="black"/>
<path d="M99.7062 210.79L100.932 210.538C100.993 210.744 101.091 210.947 101.224 211.146C101.353 211.349 101.538 211.523 101.779 211.665C102.019 211.808 102.333 211.894 102.722 211.923C103.255 211.961 103.708 211.871 104.081 211.652C104.45 211.436 104.648 211.141 104.676 210.767C104.7 210.434 104.598 210.163 104.371 209.952C104.143 209.742 103.777 209.554 103.273 209.388L102.004 208.976C101.239 208.73 100.681 208.399 100.328 207.982C99.9743 207.568 99.8199 207.058 99.8644 206.449C99.9009 205.951 100.077 205.515 100.393 205.143C100.705 204.771 101.124 204.491 101.651 204.301C102.178 204.112 102.779 204.042 103.455 204.091C104.343 204.156 105.064 204.403 105.617 204.831C106.171 205.259 106.498 205.849 106.599 206.6L105.306 206.825C105.219 206.347 105.017 205.979 104.698 205.721C104.375 205.461 103.939 205.312 103.392 205.272C102.768 205.226 102.264 205.322 101.878 205.56C101.488 205.801 101.279 206.108 101.252 206.482C101.23 206.785 101.317 207.046 101.514 207.265C101.71 207.488 102.024 207.667 102.454 207.801L103.88 208.247C104.664 208.494 105.228 208.83 105.573 209.254C105.914 209.682 106.062 210.196 106.018 210.796C105.982 211.288 105.812 211.712 105.509 212.069C105.202 212.427 104.8 212.696 104.305 212.876C103.806 213.056 103.25 213.123 102.638 213.079C101.777 213.015 101.114 212.777 100.651 212.363C100.183 211.949 99.8686 211.425 99.7062 210.79Z" fill="black"/>
<path d="M89.2261 202.002C90.0248 202.18 90.6704 202.522 91.1632 203.028C91.656 203.533 91.9839 204.152 92.1471 204.883C92.3102 205.614 92.2971 206.404 92.1077 207.255C91.9149 208.12 91.5859 208.848 91.1205 209.439C90.6506 210.033 90.0875 210.452 89.4312 210.698C88.7705 210.947 88.0556 210.986 87.2865 210.814C86.6876 210.681 86.1725 210.45 85.7412 210.121C85.31 209.792 84.9854 209.394 84.7675 208.926C84.5496 208.458 84.463 207.95 84.5076 207.401L85.8164 207.693C85.8298 208.103 85.975 208.496 86.2522 208.872C86.5248 209.251 86.9495 209.505 87.5262 209.634C88.0365 209.747 88.5135 209.714 88.9573 209.533C89.3966 209.356 89.777 209.05 90.0985 208.617C90.4155 208.187 90.6456 207.651 90.7889 207.007C90.9355 206.349 90.9597 205.753 90.8613 205.219C90.7593 204.684 90.548 204.239 90.2273 203.884C89.9029 203.529 89.4819 203.293 88.9642 203.178C88.6241 203.102 88.3022 203.093 87.9985 203.149C87.6949 203.206 87.4222 203.324 87.1806 203.503C86.9389 203.682 86.7428 203.917 86.5923 204.21L85.2834 203.918C85.4694 203.432 85.7533 203.02 86.1352 202.682C86.5125 202.347 86.966 202.114 87.4956 201.984C88.0208 201.856 88.5976 201.862 89.2261 202.002Z" fill="black"/>
<path d="M77.8974 198.898L74.7797 207.049L73.5698 206.586L74.0407 205.355L73.9557 205.323C73.6529 205.669 73.2588 205.894 72.7736 205.996C72.2883 206.098 71.8016 206.056 71.3134 205.869C71.2214 205.834 71.1071 205.789 70.9704 205.732C70.8338 205.676 70.7315 205.631 70.6634 205.597L71.1506 204.323C71.189 204.35 71.2802 204.403 71.4242 204.482C71.5633 204.564 71.716 204.636 71.8823 204.7C72.2785 204.852 72.6641 204.904 73.0391 204.857C73.4091 204.812 73.7398 204.679 74.0312 204.457C74.3177 204.239 74.5313 203.945 74.6721 203.577L76.645 198.419L77.8974 198.898Z" fill="black"/>
<path d="M64.0372 192.361C64.7242 192.747 65.2353 193.249 65.5704 193.867C65.9021 194.483 66.0484 195.167 66.0091 195.918C65.9665 196.667 65.7246 197.435 65.2833 198.221C64.8384 199.014 64.3063 199.625 63.6871 200.055C63.0646 200.483 62.4039 200.716 61.7051 200.754C61.003 200.79 60.3083 200.615 59.6213 200.23C58.9342 199.844 58.4248 199.343 58.093 198.727C57.7579 198.109 57.6126 197.424 57.6571 196.671C57.6983 195.917 57.9413 195.143 58.3862 194.35C58.8274 193.564 59.3584 192.959 59.9791 192.534C60.5964 192.107 61.2562 191.876 61.9583 191.84C62.6571 191.802 63.3501 191.976 64.0372 192.361ZM63.4476 193.412C62.9257 193.119 62.4212 193.012 61.9341 193.09C61.447 193.169 61.0002 193.38 60.5937 193.726C60.1871 194.071 59.8411 194.498 59.5556 195.006C59.2701 195.515 59.085 196.035 59.0003 196.565C58.9156 197.095 58.9657 197.59 59.1506 198.05C59.3355 198.51 59.6889 198.886 60.2108 199.179C60.7327 199.472 61.2381 199.578 61.7271 199.496C62.216 199.414 62.6647 199.199 63.0731 198.851C63.4816 198.502 63.8285 198.073 64.114 197.565C64.3995 197.056 64.5837 196.538 64.6665 196.011C64.7494 195.485 64.6974 194.993 64.5106 194.536C64.3239 194.079 63.9695 193.705 63.4476 193.412Z" fill="black"/>
<path d="M44.6825 193.659L51.7944 184.449L52.8557 185.269L45.7439 194.479L44.6825 193.659Z" fill="black"/>
<path d="M33.1977 183.257L41.5748 175.181L42.5055 176.146L34.1284 184.223L33.1977 183.257Z" fill="black"/>
<path d="M33.5697 165.268C33.9929 165.86 34.217 166.489 34.2422 167.155C34.2643 167.824 34.0926 168.483 33.7272 169.131C33.3587 169.781 32.7986 170.375 32.0469 170.913C31.3014 171.446 30.563 171.781 29.8317 171.918C29.1005 172.054 28.4223 172.001 27.7973 171.759C27.1723 171.517 26.646 171.097 26.2184 170.5C25.8878 170.037 25.7036 169.617 25.6659 169.239C25.6229 168.86 25.6478 168.53 25.7405 168.25C25.8279 167.968 25.9045 167.743 25.9705 167.575L25.9043 167.483L22.4109 169.982L21.6307 168.891L31.0944 162.121L31.8482 163.174L30.7576 163.954L30.8502 164.084C31.0369 164.071 31.2817 164.069 31.5847 164.075C31.8845 164.084 32.2096 164.171 32.5598 164.335C32.9069 164.501 33.2435 164.812 33.5697 165.268ZM32.4843 165.821C32.1713 165.384 31.7928 165.095 31.3489 164.957C30.9018 164.82 30.4188 164.819 29.8997 164.953C29.3776 165.089 28.8485 165.348 28.3125 165.732C27.7826 166.111 27.3741 166.52 27.0869 166.958C26.7966 167.398 26.6486 167.849 26.6427 168.31C26.6338 168.772 26.7881 169.226 27.1055 169.669C27.4361 170.131 27.8302 170.432 28.2878 170.57C28.7401 170.707 29.2232 170.709 29.7369 170.574C30.2454 170.439 30.7492 170.192 31.2482 169.835C31.7535 169.474 32.1574 169.068 32.46 168.619C32.7573 168.169 32.9186 167.704 32.9437 167.225C32.9636 166.745 32.8105 166.277 32.4843 165.821Z" fill="black"/>
<path d="M26.2228 153.328C26.583 154.029 26.7324 154.73 26.6708 155.43C26.6075 156.127 26.3522 156.778 25.905 157.383C25.456 157.984 24.8307 158.491 24.0289 158.903C23.2204 159.319 22.4394 159.535 21.6857 159.552C20.9303 159.565 20.2507 159.395 19.647 159.041C19.0416 158.684 18.5588 158.155 18.1985 157.454C17.8383 156.753 17.6898 156.054 17.7531 155.357C17.8147 154.657 18.0716 154.005 18.524 153.402C18.9745 152.796 19.6041 152.285 20.4126 151.869C21.2143 151.457 21.9912 151.245 22.7433 151.233C23.4936 151.218 24.1715 151.389 24.7769 151.746C25.3806 152.1 25.8625 152.628 26.2228 153.328ZM25.1515 153.879C24.8779 153.347 24.5163 152.979 24.0668 152.776C23.6172 152.572 23.1277 152.503 22.5982 152.566C22.0686 152.63 21.5445 152.795 21.0257 153.062C20.5069 153.328 20.0659 153.659 19.7028 154.055C19.3396 154.45 19.1082 154.891 19.0086 155.376C18.9091 155.862 18.9961 156.371 19.2698 156.903C19.5434 157.435 19.9067 157.802 20.3596 158.004C20.8125 158.206 21.3054 158.274 21.8383 158.208C22.3712 158.143 22.897 157.977 23.4158 157.71C23.9346 157.444 24.3739 157.113 24.7337 156.72C25.0935 156.326 25.3215 155.887 25.4177 155.403C25.5139 154.919 25.4252 154.411 25.1515 153.879Z" fill="black"/>
<path d="M21.6255 143.631L14.2242 148.966L13.7692 147.632L19.4841 143.689L19.4548 143.603L12.5291 143.997L12.0668 142.642L17.7748 138.749L17.7455 138.663L10.834 139.028L10.379 137.694L19.4974 137.393L19.923 138.641L14.194 142.612L14.238 142.741L21.1999 142.384L21.6255 143.631Z" fill="black"/>
<path d="M12.351 130.51L17.5137 129.556L17.7572 130.875L9.17511 132.46L8.93981 131.186L10.2808 130.938L10.2601 130.827C9.78716 130.706 9.3806 130.465 9.04046 130.104C8.69658 129.744 8.46479 129.24 8.34507 128.592C8.23774 128.011 8.26302 127.48 8.42092 127C8.57509 126.521 8.87006 126.116 9.30585 125.785C9.73791 125.455 10.319 125.223 11.0491 125.088L16.5023 124.08L16.7458 125.399L11.382 126.39C10.7078 126.514 10.2149 126.786 9.9034 127.206C9.58814 127.626 9.48692 128.142 9.59976 128.753C9.67751 129.174 9.83826 129.533 10.082 129.831C10.3251 130.125 10.6392 130.335 11.0244 130.46C11.4097 130.585 11.8519 130.602 12.351 130.51Z" fill="black"/>
<path d="M9.65299 96.032L9.86011 97.2666C9.65228 97.32 9.44615 97.4097 9.24173 97.5359C9.03397 97.6578 8.85429 97.8362 8.7027 98.071C8.5511 98.3058 8.45397 98.6172 8.4113 99.005C8.35288 99.5359 8.42657 99.9917 8.63237 100.373C8.83481 100.749 9.1224 100.958 9.49515 100.999C9.82649 101.036 10.1014 100.944 10.32 100.724C10.5385 100.504 10.7399 100.145 10.9243 99.6473L11.3823 98.3944C11.6559 97.6395 12.0075 97.0933 12.4371 96.7557C12.863 96.4176 13.3791 96.282 13.9853 96.3487C14.4823 96.4034 14.9108 96.5953 15.2709 96.9246C15.6314 97.25 15.8966 97.6793 16.0666 98.2125C16.2366 98.7457 16.2845 99.3492 16.2104 100.023C16.113 100.908 15.8404 101.619 15.3926 102.157C14.9447 102.694 14.3433 103 13.5884 103.073L13.4113 101.773C13.8914 101.704 14.2666 101.515 14.537 101.205C14.8077 100.892 14.9731 100.462 15.0331 99.9165C15.1015 99.2953 15.024 98.7875 14.8006 98.3933C14.5739 97.9949 14.2742 97.7752 13.9014 97.7342C13.6002 97.701 13.3363 97.7787 13.1098 97.9672C12.8795 98.1552 12.6895 98.4621 12.5398 98.8876L12.0419 100.296C11.7662 101.07 11.4102 101.621 10.9738 101.951C10.5341 102.276 10.0149 102.405 9.41627 102.339C8.9268 102.286 8.50893 102.101 8.16266 101.784C7.8168 101.464 7.56287 101.053 7.40087 100.551C7.23928 100.046 7.19205 99.4882 7.25916 98.8782C7.35362 98.0198 7.61603 97.3665 8.04641 96.9185C8.47719 96.4667 9.01272 96.1712 9.65299 96.032Z" fill="black"/>
<path d="M18.8177 85.8799C18.6107 86.6715 18.2456 87.3043 17.7224 87.7782C17.1991 88.2522 16.5692 88.5574 15.8328 88.6937C15.0963 88.83 14.3066 88.788 13.4638 88.5677C12.6062 88.3435 11.8907 87.9881 11.3171 87.5014C10.7408 87.0101 10.3418 86.4321 10.1202 85.7673C9.89583 85.0979 9.88331 84.382 10.0826 83.6198C10.2378 83.0261 10.4876 82.5198 10.832 82.1008C11.1765 81.6819 11.5864 81.3721 12.0617 81.1714C12.537 80.9707 13.0481 80.9027 13.5949 80.9674L13.2558 82.2647C12.8451 82.263 12.4468 82.3938 12.0609 82.657C11.6722 82.9156 11.4032 83.3307 11.2537 83.9024C11.1215 84.4082 11.1375 84.8861 11.3017 85.3362C11.4632 85.7817 11.7544 86.173 12.1753 86.5101C12.5934 86.8426 13.1213 87.0922 13.7589 87.2589C14.4113 87.4294 15.0061 87.4753 15.5435 87.3965C16.0819 87.3141 16.5341 87.1192 16.9004 86.8116C17.2675 86.5004 17.5182 86.0883 17.6523 85.5753C17.7404 85.2381 17.7618 84.9168 17.7164 84.6113C17.671 84.3057 17.5632 84.029 17.3932 83.7809C17.2231 83.5329 16.9947 83.3283 16.7079 83.1672L17.0471 81.8699C17.5263 82.0735 17.9278 82.3722 18.2516 82.7662C18.5727 83.1555 18.7887 83.6172 18.8996 84.1513C19.0079 84.6807 18.9805 85.2569 18.8177 85.8799Z" fill="black"/>
<path d="M22.334 74.6721L14.3019 71.2588L14.8085 70.0666L16.0217 70.5821L16.0573 70.4984C15.7221 70.1831 15.5122 69.7812 15.4276 69.2925C15.3431 68.8038 15.403 68.319 15.6075 67.8379C15.646 67.7472 15.6959 67.6347 15.7571 67.5002C15.8184 67.3657 15.8673 67.2651 15.9039 67.1983L17.1589 67.7317C17.1307 67.7691 17.0743 67.8583 16.9897 67.9993C16.903 68.1353 16.8249 68.2853 16.7553 68.4491C16.5894 68.8396 16.5231 69.223 16.5566 69.5994C16.5881 69.9709 16.709 70.3062 16.9193 70.6055C17.1276 70.8998 17.413 71.124 17.7756 71.278L22.8584 73.438L22.334 74.6721Z" fill="black"/>
<path d="M29.3723 61.0599C28.9618 61.7324 28.4416 62.2248 27.8117 62.5371C27.1838 62.8461 26.4953 62.9673 25.7461 62.9006C24.9989 62.8306 24.2405 62.5608 23.471 62.0912C22.695 61.6176 22.1035 61.0636 21.6964 60.4291C21.2913 59.7913 21.0826 59.1226 21.0703 58.4228C21.06 57.7198 21.2601 57.0321 21.6705 56.3596C22.081 55.687 22.6001 55.1962 23.2281 54.8872C23.858 54.5749 24.5481 54.4547 25.2986 54.5267C26.051 54.5953 26.8152 54.8665 27.5912 55.3401C28.3607 55.8097 28.9464 56.3624 29.3483 56.9982C29.7521 57.6307 29.9592 58.2985 29.9695 59.0014C29.9818 59.7012 29.7827 60.3873 29.3723 61.0599ZM28.3441 60.4324C28.6558 59.9215 28.7814 59.4213 28.7208 58.9316C28.6602 58.442 28.4648 57.9877 28.1347 57.5688C27.8046 57.1499 27.3906 56.7885 26.8926 56.4846C26.3947 56.1808 25.8824 55.9768 25.3557 55.8728C24.8289 55.7688 24.3324 55.8008 23.866 55.9688C23.3996 56.1368 23.0105 56.4762 22.6987 56.9871C22.3869 57.4979 22.263 57.9991 22.3268 58.4908C22.3907 58.9824 22.5893 59.4386 22.9226 59.8595C23.256 60.2803 23.6716 60.6427 24.1695 60.9466C24.6675 61.2505 25.1782 61.4535 25.7017 61.5555C26.2251 61.6575 26.7185 61.6236 27.1816 61.4536C27.6448 61.2836 28.0323 60.9432 28.3441 60.4324Z" fill="black"/>
<path d="M28.782 41.6707L37.7263 49.1141L36.8685 50.1448L27.9243 42.7014L28.782 41.6707Z" fill="black"/>
<path d="M39.5964 30.5734L47.3615 39.2399L46.3629 40.1347L38.5977 31.4682L39.5964 30.5734Z" fill="black"/>
<path d="M57.5602 31.6022C56.9537 32.0035 56.3169 32.2045 55.6498 32.2053C54.9805 32.203 54.3288 32.0074 53.6946 31.6185C53.0583 31.2265 52.4851 30.6451 51.9752 29.8743C51.4694 29.1098 51.1616 28.3596 51.0518 27.6238C50.9419 26.8881 51.0194 26.2123 51.2842 25.5965C51.5491 24.9808 51.9879 24.4702 52.6008 24.0647C53.0746 23.7512 53.5012 23.5825 53.8806 23.5586C54.261 23.5295 54.5897 23.5664 54.8667 23.6693C55.1447 23.7669 55.3666 23.8517 55.5324 23.9237L55.6271 23.861L53.257 20.2786L54.3754 19.5388L60.7959 29.2435L59.7155 29.9583L58.9756 28.8399L58.843 28.9277C58.8486 29.1147 58.8425 29.3595 58.8246 29.662C58.8047 29.9614 58.7063 30.283 58.5297 30.627C58.3509 30.9678 58.0278 31.2929 57.5602 31.6022ZM57.0473 30.4973C57.4958 30.2005 57.7976 29.8328 57.9525 29.3942C58.1054 28.9524 58.1244 28.4698 58.0096 27.9462C57.8928 27.4194 57.6525 26.8812 57.2888 26.3315C56.9294 25.7882 56.5358 25.365 56.1083 25.062C55.6786 24.7558 55.2337 24.5914 54.7737 24.5687C54.3115 24.543 53.853 24.6805 53.3981 24.9815C52.9242 25.295 52.6098 25.6779 52.4548 26.1301C52.3009 26.5771 52.2819 27.0598 52.3977 27.5782C52.5146 28.0913 52.7424 28.6037 53.0809 29.1155C53.4237 29.6335 53.8141 30.052 54.2521 30.3708C54.6912 30.6844 55.1497 30.8625 55.6275 30.9051C56.1065 30.9425 56.5797 30.8066 57.0473 30.4973Z" fill="black"/>
<path d="M69.7602 24.6962C69.0468 25.0307 68.3413 25.1543 67.6437 25.0672C66.9495 24.9785 66.3084 24.6996 65.7204 24.2306C65.1358 23.76 64.6522 23.1165 64.2695 22.3003C63.8837 21.4771 63.696 20.6887 63.7066 19.9349C63.7206 19.1795 63.9156 18.5066 64.2914 17.9162C64.6707 17.3242 65.2171 16.861 65.9305 16.5266C66.6438 16.1922 67.3476 16.0694 68.0419 16.1581C68.7395 16.2452 69.3814 16.5258 69.9676 16.9998C70.5572 17.4723 71.0449 18.1201 71.4308 18.9432C71.8135 19.7595 71.997 20.5436 71.9813 21.2956C71.9691 22.0459 71.7734 22.7171 71.3941 23.3091C71.0182 23.8994 70.4736 24.3618 69.7602 24.6962ZM69.2489 23.6056C69.7908 23.3516 70.1716 23.0036 70.3912 22.5618C70.6108 22.12 70.6985 21.6334 70.6543 21.1019C70.6102 20.5704 70.4643 20.0405 70.2167 19.5123C69.9691 18.9842 69.6543 18.5314 69.2724 18.154C68.8905 17.7767 68.4588 17.5293 67.9771 17.4121C67.4954 17.2949 66.9836 17.3633 66.4417 17.6173C65.8998 17.8713 65.5199 18.2209 65.3019 18.6662C65.0839 19.1114 64.9978 19.6015 65.0436 20.1364C65.0894 20.6714 65.2361 21.2029 65.4837 21.7311C65.7313 22.2593 66.0452 22.7103 66.4255 23.0843C66.8058 23.4582 67.2359 23.7021 67.716 23.8159C68.1961 23.9297 68.707 23.8596 69.2489 23.6056Z" fill="black"/>
<path d="M79.6189 20.4562L74.5583 12.865L75.9076 12.459L79.639 18.3141L79.7261 18.2879L79.5857 11.3525L80.9568 10.94L84.6381 16.7864L84.7252 16.7602L84.6131 9.83996L85.9624 9.43401L85.9304 18.5573L84.6681 18.9371L80.9084 13.0668L80.7778 13.1061L80.8812 20.0764L79.6189 20.4562Z" fill="black"/>
<path d="M93.0704 11.6671L93.8348 16.8611L92.5082 17.0564L91.2375 8.42211L92.5191 8.23349L92.7177 9.58259L92.8301 9.56605C92.9679 9.09781 93.2234 8.70031 93.5964 8.37357C93.969 8.04309 94.4813 7.82986 95.1333 7.73389C95.7179 7.64786 96.2471 7.6925 96.7209 7.86781C97.1941 8.03937 97.5881 8.34895 97.9028 8.79653C98.217 9.24036 98.4281 9.82953 98.5362 10.564L99.3436 16.0504L98.017 16.2456L97.2228 10.8492C97.123 10.1709 96.8691 9.66845 96.4611 9.34179C96.0526 9.01139 95.5411 8.89141 94.9265 8.98186C94.503 9.04418 94.138 9.1917 93.8315 9.42441C93.5287 9.65657 93.3077 9.96285 93.1684 10.3432C93.0292 10.7236 92.9965 11.1649 93.0704 11.6671Z" fill="black"/>
</svg>
